<svg width="48" height="48" viewBox="0 0 48 48" fill="none" xmlns="http://www.w3.org/2000/svg">
<path d="M0 5.37C0 2.40423 2.40423 0 5.37 0H42.63C45.5958 0 48 2.40423 48 5.37V24H0V5.37Z" fill="#FBB528"/>
<path d="M0 42.38C0 45.3458 2.40423 47.75 5.37 47.75H42.63C45.5958 47.75 48 45.3458 48 42.38V23.75H0V42.38Z" fill="#1E385B" fill-opacity="0.962205"/>
<path d="M22.1684 34C21.9415 34 21.7941 33.8865 21.726 33.6596L14.8509 10.6519L14.8168 10.5157C14.8168 10.2888 14.9416 10.1754 15.1912 10.1754H20.3986C20.6482 10.1754 20.807 10.2888 20.8751 10.5157L24.7891 26.0017C24.8118 26.0698 24.8459 26.1038 24.8912 26.1038C24.9366 26.1038 24.9707 26.0698 24.9934 26.0017L28.8393 10.5157C28.9074 10.2888 29.0662 10.1754 29.3158 10.1754H34.4211C34.5572 10.1754 34.6593 10.2208 34.7274 10.3115C34.7955 10.4023 34.8068 10.5157 34.7614 10.6519L27.7842 33.6596C27.7162 33.8865 27.5687 34 27.3418 34H22.1684Z" fill="#FFFBFB"/>
</svg>
